<svg width="16" height="12" viewBox="0 0 16 12" fill="none" xmlns="http://www.w3.org/2000/svg">
<path d="M15.2229 8.73928C15.2229 8.73928 15.2229 8.73928 15.2229 8.73928L9.46211 5.13896C9.36167 5.07618 9.24559 5.04288 9.12716 5.04288H8.6326V4.77424C9.6107 4.49809 10.3296 3.59754 10.3296 2.53226C10.3296 1.248 9.28481 0.203156 8.00055 0.203156C6.71625 0.203156 5.67145 1.248 5.67145 2.53226C5.67145 2.88133 5.95443 3.16431 6.3035 3.16431C6.65258 3.16431 6.93556 2.88133 6.93556 2.53226C6.93556 1.94502 7.41328 1.46726 8.00055 1.46726C8.58778 1.46726 9.06551 1.94502 9.06551 2.53226C9.06551 3.11949 8.58775 3.59725 8.00055 3.59725C7.65148 3.59725 7.3685 3.88023 7.3685 4.2293V5.04288H6.87394C6.75551 5.04288 6.63943 5.07618 6.53899 5.13896L0.778157 8.73928C0.291258 9.04364 0.000549316 9.5681 0.000549316 10.1423C0.000549316 11.0546 0.742761 11.7968 1.65505 11.7968H14.346C15.2583 11.7968 16.0005 11.0546 16.0005 10.1423C16.0005 9.5681 15.7098 9.04364 15.2229 8.73928V8.73928ZM14.346 10.5327H1.65505C1.43979 10.5327 1.26466 10.3576 1.26466 10.1423C1.26466 10.0069 1.33324 9.88305 1.44813 9.81124L7.05518 6.30699H8.94589L14.5529 9.81124C14.6679 9.88305 14.7364 10.0069 14.7364 10.1423C14.7364 10.3576 14.5613 10.5327 14.346 10.5327V10.5327Z" fill="#424551"/>
</svg>
