<svg width="30" height="30" viewBox="0 0 30 30" fill="none" xmlns="http://www.w3.org/2000/svg">
<path fill-rule="evenodd" clip-rule="evenodd" d="M20.4237 12.8813C21.8201 13.9486 21.8201 16.0514 20.4237 17.1187L14.3171 21.786C12.5623 23.1272 10.0311 21.8759 10.0311 19.6673V10.3328C10.0311 8.12415 12.5623 6.8729 14.3171 8.21408L20.4237 12.8813ZM18.8043 15L12.6978 10.3328L12.6978 19.6673L18.8043 15Z" fill="white"/>
<path fill-rule="evenodd" clip-rule="evenodd" d="M14.9999 2.99998C8.37253 2.99998 2.99995 8.37256 2.99995 15C2.99995 21.6274 8.37253 27 14.9999 27C21.6274 27 26.9999 21.6274 26.9999 15C26.9999 8.37256 21.6274 2.99998 14.9999 2.99998ZM0.333282 15C0.333282 6.8998 6.89977 0.333313 14.9999 0.333313C23.1001 0.333313 29.6666 6.8998 29.6666 15C29.6666 23.1002 23.1001 29.6666 14.9999 29.6666C6.89977 29.6666 0.333282 23.1002 0.333282 15Z" fill="white"/>
</svg>
