<svg width="78" height="14" viewBox="0 0 78 14" fill="none" xmlns="http://www.w3.org/2000/svg">
<path fill-rule="evenodd" clip-rule="evenodd" d="M5.93263 1.28421C6.3379 0.349629 7.66328 0.349628 8.06855 1.28421L9.29449 4.11134L12.3621 4.40365C13.3762 4.50028 13.7857 5.76079 13.0221 6.43502L10.7122 8.47459L11.3821 11.4824C11.6036 12.4767 10.5313 13.2557 9.65414 12.7378L7.00059 11.1712L4.34704 12.7378C3.46983 13.2557 2.39758 12.4767 2.61905 11.4824L3.28899 8.47459L0.979065 6.43502C0.215456 5.76079 0.625019 4.50028 1.6391 4.40365L4.70669 4.11134L5.93263 1.28421Z" fill="#F89828"/>
<path fill-rule="evenodd" clip-rule="evenodd" d="M21.9326 1.28421C22.3379 0.349629 23.6633 0.349628 24.0685 1.28421L25.2945 4.11134L28.3621 4.40365C29.3762 4.50028 29.7857 5.76079 29.0221 6.43502L26.7122 8.47459L27.3821 11.4824C27.6036 12.4767 26.5313 13.2557 25.6541 12.7378L23.0006 11.1712L20.347 12.7378C19.4698 13.2557 18.3976 12.4767 18.619 11.4824L19.289 8.47459L16.9791 6.43502C16.2155 5.76079 16.625 4.50028 17.6391 4.40365L20.7067 4.11134L21.9326 1.28421Z" fill="#F89828"/>
<path fill-rule="evenodd" clip-rule="evenodd" d="M37.9326 1.28421C38.3379 0.349629 39.6633 0.349628 40.0685 1.28421L41.2945 4.11134L44.3621 4.40365C45.3762 4.50028 45.7857 5.76079 45.0221 6.43502L42.7122 8.47459L43.3821 11.4824C43.6036 12.4767 42.5313 13.2557 41.6541 12.7378L39.0006 11.1712L36.347 12.7378C35.4698 13.2557 34.3976 12.4767 34.619 11.4824L35.289 8.47459L32.9791 6.43502C32.2155 5.76079 32.625 4.50028 33.6391 4.40365L36.7067 4.11134L37.9326 1.28421Z" fill="#F89828"/>
<path fill-rule="evenodd" clip-rule="evenodd" d="M53.9326 1.28421C54.3378 0.349629 55.6632 0.349628 56.0685 1.28421L57.2944 4.11134L60.362 4.40365C61.3761 4.50028 61.7857 5.76079 61.0221 6.43502L58.7121 8.47459L59.3821 11.4824C59.6035 12.4767 58.5313 13.2557 57.6541 12.7378L55.0005 11.1712L52.347 12.7378C51.4698 13.2557 50.3975 12.4767 50.619 11.4824L51.2889 8.47459L48.979 6.43502C48.2154 5.76079 48.625 4.50028 49.639 4.40365L52.7066 4.11134L53.9326 1.28421Z" fill="#F89828"/>
<path fill-rule="evenodd" clip-rule="evenodd" d="M69.9326 1.28421C70.3378 0.349629 71.6632 0.349628 72.0685 1.28421L73.2944 4.11134L76.362 4.40365C77.3761 4.50028 77.7857 5.76079 77.0221 6.43502L74.7121 8.47459L75.3821 11.4824C75.6035 12.4767 74.5313 13.2557 73.6541 12.7378L71.0005 11.1712L68.347 12.7378C67.4698 13.2557 66.3975 12.4767 66.619 11.4824L67.2889 8.47459L64.979 6.43502C64.2154 5.76079 64.625 4.50028 65.639 4.40365L68.7066 4.11134L69.9326 1.28421ZM72.2265 4.57444L71.0005 1.74732L69.7746 4.57444C69.6059 4.96341 69.2391 5.22992 68.8171 5.27014L65.7495 5.56244L68.0594 7.60201C68.3772 7.88263 68.5173 8.31384 68.4251 8.72766L67.7552 11.7354L70.4087 10.1688C70.7738 9.9533 71.2272 9.9533 71.5923 10.1688L74.2459 11.7354L73.5759 8.72766C73.4838 8.31384 73.6239 7.88263 73.9417 7.60201L76.2516 5.56244L73.184 5.27014C72.762 5.22992 72.3951 4.96341 72.2265 4.57444Z" fill="#B3B7BC"/>
</svg>
