<svg width="14" height="13" viewBox="0 0 14 13" fill="none" xmlns="http://www.w3.org/2000/svg">
<path fill-rule="evenodd" clip-rule="evenodd" d="M5.93257 1.28421C6.33784 0.349629 7.66322 0.349628 8.06849 1.28421L9.29442 4.11134L12.362 4.40365C13.3761 4.50028 13.7857 5.76079 13.0221 6.43502L10.7121 8.47459L11.3821 11.4824C11.6035 12.4767 10.5313 13.2557 9.65408 12.7378L7.00053 11.1712L4.34698 12.7378C3.46977 13.2557 2.39752 12.4767 2.61899 11.4824L3.28893 8.47459L0.979004 6.43502C0.215395 5.76079 0.624958 4.50028 1.63904 4.40365L4.70663 4.11134L5.93257 1.28421ZM8.22647 4.57444L7.00053 1.74732L5.77459 4.57444C5.60592 4.96341 5.23911 5.22992 4.81705 5.27014L1.74946 5.56244L4.05938 7.60201C4.37719 7.88263 4.5173 8.31384 4.42513 8.72766L3.75519 11.7354L6.40874 10.1688C6.77383 9.9533 7.22723 9.9533 7.59232 10.1688L10.2459 11.7354L9.57593 8.72766C9.48376 8.31384 9.62387 7.88263 9.94168 7.60201L12.2516 5.56244L9.184 5.27014C8.76195 5.22992 8.39514 4.96341 8.22647 4.57444Z" fill="#B3B7BC"/>
</svg>
