<?xml version="1.0" standalone="no"?>
<!DOCTYPE svg PUBLIC "-//W3C//DTD SVG 1.1//EN" "http://www.w3.org/Graphics/SVG/1.1/DTD/svg11.dtd" >
<svg xmlns="http://www.w3.org/2000/svg">
<metadata>Generated by IcoMoon</metadata>
<defs>
<font id="icomoon" horiz-adv-x="1024">
<font-face units-per-em="1024" ascent="960" descent="-64" />
<missing-glyph horiz-adv-x="1024" />
<glyph unicode="&#x20;" horiz-adv-x="512" d="" />
<glyph unicode="&#xe900;" glyph-name="right-arrow" d="M670.885 744.227c22.215 22.216 58.237 22.216 80.452 0l256-256c22.215-22.217 22.215-58.237 0-80.453l-256-255.999c-22.215-22.215-58.237-22.215-80.452 0s-22.215 58.237 0 80.453l158.885 158.884h-772.881c-31.419 0-56.889 25.47-56.889 56.889s25.47 56.889 56.889 56.889h772.881l-158.885 158.884c-22.215 22.217-22.215 58.237 0 80.453z" />
<glyph unicode="&#xe901;" glyph-name="pinterest" d="M524.861 917.334c-259.126-0.039-396.861-164.895-396.861-344.652 0-83.347 46.909-187.346 122.020-220.314 21.426-9.585 18.59 2.109 37.023 72.12 1.458 5.827 0.709 10.875-4.017 16.307-107.368 123.321-20.954 376.843 226.512 376.843 358.143 0 291.225-492.104 62.309-492.104-59.003 0-102.957 45.998-89.053 102.902 16.857 67.783 49.864 140.647 49.864 189.498 0 123.123-184.724 104.858-184.724-58.277 0-50.415 17.96-84.442 17.96-84.442s-59.434-238.427-70.462-282.971c-18.67-75.407 2.521-197.478 4.372-208 1.142-5.786 7.68-7.624 11.343-2.852 5.869 7.624 77.71 109.394 97.836 182.963 7.326 26.793 37.378 135.521 37.378 135.521 19.811-35.512 76.922-65.239 137.774-65.239 181.023 0 311.864 158.013 311.864 354.079-0.63 187.971-162.627 328.616-371.139 328.616v0z" />
<glyph unicode="&#xe902;" glyph-name="pause" d="M697.129 520.318c47.664-36.431 47.664-108.206 0-144.637l-208.439-159.311c-59.897-45.78-146.295-3.069-146.295 72.318v318.618c0 75.389 86.398 118.098 146.295 72.319l208.439-159.308zM641.853 448l-208.435 159.307v-318.618l208.435 159.311zM511.997 857.601c-226.214 0-409.598-183.384-409.598-409.601 0-226.215 183.384-409.6 409.598-409.6 226.219 0 409.6 183.385 409.6 409.6 0 226.217-183.381 409.601-409.6 409.601zM11.376 448c0 276.487 224.136 500.623 500.621 500.623 276.487 0 500.623-224.136 500.623-500.623s-224.137-500.62-500.623-500.62c-276.484 0-500.621 224.133-500.621 500.62z" />
<glyph unicode="&#xe903;" glyph-name="left-arrow" d="M353.116 151.774c-22.217-22.215-58.237-22.215-80.453 0l-256 255.999c-22.216 22.217-22.216 58.237 0 80.453l256 256c22.217 22.216 58.237 22.216 80.453 0s22.216-58.236 0-80.453l-158.885-158.884h772.88c31.42 0 56.889-25.47 56.889-56.889s-25.469-56.889-56.889-56.889h-772.88l158.885-158.884c22.216-22.216 22.216-58.238 0-80.453z" />
<glyph unicode="&#xe904;" glyph-name="heart" d="M512.007 110.605c-196.227 111.757-305.669 222.842-358.591 319.223-54.166 98.644-49.44 181.729-19.383 240.696 61.78 121.204 237.464 159.962 344.505 24.581l33.467-42.327 33.469 42.325c107.057 135.386 282.75 96.623 344.529-24.579 30.061-58.966 34.784-142.049-19.386-240.695-52.928-96.381-162.374-207.467-358.611-319.224zM512.008 784.794c-150.579 143.087-372.719 83.949-454.002-75.519-44.61-87.518-45.219-200.633 20.611-320.52 65.245-118.824 195.332-244.244 412.75-364.417l20.639-11.405 20.639 11.405c217.428 120.173 347.521 245.592 412.769 364.415 65.837 119.887 65.229 233.002 20.621 320.521-81.286 159.471-303.437 218.604-454.027 75.519z" />
<glyph unicode="&#xe905;" glyph-name="favorite" d="M511.977 12.8c-9.389 0-18.778 2.964-26.592 8.899l-22.654 17.203c-208.078 157.676-333.657 252.877-406.759 379.89-70.086 121.369-61.667 217.234-42.343 276.247 23.564 71.718 76.568 129.436 149.38 162.535 37.436 16.966 78.143 25.626 120.849 25.626 90.318 0 173.791-37.669 228.129-99.776 54.337 62.107 137.752 99.776 228.13 99.776 42.706 0 83.354-8.601 120.786-25.567 72.817-33.1 125.88-90.76 149.443-162.535 19.384-58.963 27.745-154.82-42.342-276.247-73.175-127.006-198.927-222.335-407.255-380.241l-22.113-16.906c-7.875-5.929-17.265-8.904-26.657-8.904zM283.848 798.019c-30.046 0-58.395-5.932-84.321-17.678-50.52-22.957-87.169-62.465-103.16-111.343-20.172-61.397-7.935-133.471 35.254-208.336 64.089-111.345 176.645-197.069 380.288-351.478 203.657 154.348 316.21 240.179 380.286 351.417 43.254 74.921 55.429 146.995 35.318 208.397-16.056 48.82-52.7 88.387-103.224 111.343-25.866 11.745-54.211 17.678-84.26 17.678-81.592 0-157.43-44.372-188.692-110.394-7.086-15.068-22.533-24.677-39.436-24.677-16.962 0-32.286 9.61-39.435 24.677-31.196 66.023-107.022 110.394-188.618 110.394z" />
<glyph unicode="&#xe906;" glyph-name="chart" d="M974.266 272.686c0 0 0 0 0 0l-368.691 230.42c-6.428 4.018-13.857 6.149-21.437 6.149h-31.652v17.193c62.598 17.674 108.608 75.309 108.608 143.487 0 82.193-66.867 149.063-149.059 149.063-82.195 0-149.062-66.87-149.062-149.063 0-22.34 18.111-40.451 40.451-40.451s40.452 18.111 40.452 40.451c0 37.583 30.574 68.16 68.159 68.16 37.583 0 68.157-30.577 68.157-68.16s-30.577-68.159-68.157-68.159c-22.34 0-40.451-18.111-40.451-40.451v-52.069h-31.652c-7.58 0-15.009-2.131-21.437-6.149l-368.693-230.42c-31.162-19.479-49.767-53.044-49.767-89.793 0-58.387 47.502-105.888 105.888-105.888h812.221c58.387 0 105.888 47.501 105.888 105.888 0 36.749-18.605 70.314-49.766 89.793v0zM918.144 157.907h-812.221c-13.777 0-24.985 11.206-24.985 24.986 0 8.666 4.389 16.592 11.742 21.188l358.851 224.272h121.005l358.849-224.272c7.36-4.596 11.744-12.522 11.744-21.188 0-13.779-11.206-24.986-24.986-24.986v0z" />
<glyph unicode="&#xe907;" glyph-name="cart" d="M166.077 799.658c-4.167 0.314-9.949 0.342-20.794 0.342h-70.581c-23.564 0-42.667 19.102-42.667 42.666s19.103 42.667 42.667 42.667h70.581c0.402 0 0.804 0 1.206 0 9.159 0.001 18.227 0.002 25.999-0.583 8.648-0.652 18.696-2.182 29.090-6.819 14.628-6.525 27.124-17.036 36.060-30.33 6.349-9.446 9.578-19.082 11.702-27.491 1.908-7.556 3.461-16.491 5.030-25.515 0.068-0.396 0.138-0.792 0.207-1.188l10.166-58.456 555.264-16.436c21.76-0.643 40.563-1.199 56.051-2.905 16.365-1.803 32.595-5.192 48.16-13.486 23.59-12.567 42.656-32.203 54.515-56.154 7.834-15.806 10.739-32.127 12.058-48.542 1.248-15.53 1.248-34.342 1.242-56.11v-3.146c0.006-20.458 0.006-38.203-1.139-52.918-1.216-15.606-3.898-31.107-11.046-46.294-10.88-23.117-28.435-42.448-50.394-55.506-14.432-8.579-29.6-12.74-45.018-15.453-14.534-2.558-32.198-4.267-52.557-6.236l-415.315-40.192c-20.872-2.020-38.957-3.771-54.045-4.036-15.986-0.282-32.013 0.961-48.104 6.871-24.131 8.865-45.034 24.79-59.986 45.703-9.97 13.944-15.421 29.067-19.394 44.554-3.749 14.618-6.861 32.517-10.454 53.176l-54.077 310.947c-1.858 10.684-2.877 16.376-3.9 20.428-0.036 0.144-0.072 0.28-0.106 0.41-0.134 0.011-0.274 0.022-0.422 0.033zM279.666 649.139l28.719-165.132c3.938-22.645 6.499-37.185 9.309-48.143 2.68-10.451 4.801-14.234 6.152-16.124 4.984-6.97 11.951-12.279 19.995-15.234 2.18-0.801 6.391-1.841 17.178-1.651 11.31 0.198 26.008 1.59 48.886 3.804l412.22 39.892c22.33 2.161 36.653 3.578 47.526 5.491 10.355 1.822 14.221 3.585 16.192 4.758 7.315 4.353 13.171 10.796 16.794 18.502 0.979 2.075 2.362 6.092 3.181 16.575 0.851 11.005 0.883 25.396 0.883 47.834 0 23.829-0.032 39.183-0.973 50.888-0.896 11.2-2.419 15.398-3.462 17.493-3.949 7.983-10.304 14.529-18.17 18.718-2.061 1.099-6.214 2.748-17.382 3.978-11.674 1.286-27.021 1.772-50.835 2.477l-536.212 15.873zM394.702 181.331c-23.564 0-42.667-19.098-42.667-42.662s19.103-42.669 42.667-42.669c23.564 0 42.666 19.104 42.666 42.669s-19.102 42.662-42.666 42.662zM266.702 138.669c0 70.688 57.308 128 128 128s128-57.312 128-128c0-70.694-57.308-128-128-128s-128 57.306-128 128zM800.032 181.331c-23.558 0-42.662-19.098-42.662-42.662s19.104-42.669 42.662-42.669c23.565 0 42.669 19.104 42.669 42.669s-19.104 42.662-42.669 42.662zM672.032 138.669c0 70.688 57.312 128 128 128 70.694 0 128-57.312 128-128 0-70.694-57.306-128-128-128-70.688 0-128 57.306-128 128z" />
<glyph unicode="&#xe908;" glyph-name="Twitter" d="M960 713.706c-32.978-13.992-68.362-23.481-105.539-27.718 37.96 21.767 67.016 56.292 80.788 97.304-35.61-20.157-74.911-34.794-116.792-42.728-33.536 34.257-81.239 55.595-134.154 55.595-101.509 0-183.812-78.808-183.812-175.951 0-13.777 1.624-27.234 4.76-40.101-152.739 7.346-288.177 77.415-378.824 183.887-15.845-25.948-24.86-56.183-24.86-88.458 0-61.063 32.474-114.942 81.745-146.464-30.122 0.964-58.454 8.899-83.256 22.087v-2.198c0-85.241 63.38-156.384 147.42-172.574-15.397-3.968-31.634-6.164-48.431-6.164-11.869 0-23.347 1.126-34.601 3.272 23.403-69.965 91.263-120.842 171.665-122.235-62.877-47.181-142.158-75.218-228.27-75.218-14.837 0-29.451 0.86-43.839 2.412 81.353-50.017 177.935-79.181 281.74-79.181 338.118 0 522.945 268.16 522.945 500.725l-0.62 22.785c36.111 24.663 67.354 55.649 91.935 90.926z" />
<glyph unicode="&#xe909;" glyph-name="Search" d="M1006.996 32.845l-183.762 182.415c143.478 183.695 128.389 445.316-36.536 610.143-86.835 86.784-202.696 134.597-326.008 134.597-123.375 0-239.176-47.815-326.009-134.597-86.838-86.784-134.681-202.569-134.681-325.805 0-123.299 47.845-239.026 134.681-325.805 86.839-86.784 202.695-134.595 326.009-134.595 101.982 0 202.698 33.956 283.235 98.135l182.528-184.97c11.31-11.3 25.175-16.364 40.274-16.364 15.094 0 28.964 6.292 40.269 16.364 22.671 21.376 22.671 57.841 0 80.497v-0.015zM808.141 499.598c0-93.075-36.485-179.911-101.985-245.319-65.449-65.403-153.564-101.919-245.469-101.919-91.907 0-180.024 36.465-245.47 101.919-65.448 65.408-101.984 153.472-101.984 245.319 0 93.074 36.486 179.911 101.984 245.316 65.448 65.407 153.564 101.921 245.47 101.921 93.133 0 180.025-36.463 245.469-101.921 65.449-65.457 101.985-152.247 101.985-245.316z" />
<glyph unicode="&#xe90a;" glyph-name="Facebook" d="M749.348 917.139l-118.492 0.195c-133.129 0-219.162-90.67-219.162-231.007v-106.51h-119.143c-10.295 0-18.632-8.574-18.632-19.15v-154.319c0-10.578 8.346-19.144 18.632-19.144h119.143v-389.396c0-10.578 8.337-19.139 18.633-19.139h155.447c10.296 0 18.632 8.571 18.632 19.139v389.396h139.305c10.296 0 18.637 8.566 18.637 19.144l0.056 154.319c0 5.078-1.971 9.941-5.458 13.535s-8.243 5.615-13.184 5.615h-139.356v90.29c0 43.397 10.066 65.427 65.101 65.427l79.826 0.029c10.286 0 18.621 8.574 18.621 19.14v143.295c0 10.556-8.325 19.12-18.606 19.14z" />
<glyph unicode="&#xe90b;" glyph-name="Empty-Cart" d="M1001.539 710.472c-19.41 23.72-49.608 38.137-80.855 38.137h-656.548l-20.467 76.274c-11.876 44.339-52.81 75.267-100.273 75.267h-109.957c-18.319 0-33.439-14.416-33.439-31.975 0-17.518 15.076-31.976 33.439-31.976h109.957c16.172 0 30.196-10.31 34.491-25.774l131.518-501.059c11.876-44.339 52.81-75.269 100.273-75.269h430.146c47.416 0 89.492 30.93 100.27 75.269l80.86 317.54c7.537 28.915 1.096 59.844-19.415 83.564v0.003zM955.218 641.407l-80.86-317.541c-4.296-15.462-18.319-25.774-34.493-25.774h-430.185c-16.172 0-30.196 10.312-34.491 25.774l-93.787 359.779h639.329c10.783 0 21.565-5.155 28.047-13.41 6.446-8.216 9.646-18.525 6.446-28.835l-0.005 0.007zM432.352 192.947c-61.444 0-112.102-48.445-112.102-107.197s50.663-107.197 112.102-107.197c61.444-0.041 112.104 48.404 112.104 107.167 0 58.757-50.664 107.238-112.104 107.238v-0.010zM432.352 43.459c-24.805 0-44.219 18.565-44.219 42.286s19.415 42.286 44.219 42.286c24.805 0 44.22-18.565 44.22-42.286-0.042-22.712-20.509-42.286-44.22-42.286zM803.2 192.947c-61.44 0-112.102-48.445-112.102-107.197s50.668-107.197 112.102-107.197c61.44 0 112.102 48.445 112.102 107.197-1.050 58.716-50.662 107.197-112.102 107.197zM803.2 43.464c-24.801 0-44.216 18.565-44.216 42.281 0 23.721 19.415 42.286 44.216 42.286 24.806 0 44.221-18.565 44.221-42.286 0-22.712-20.511-42.281-44.221-42.281z" />
<glyph unicode="&#xe90c;" glyph-name="Account" d="M512.691 960c174.761 0 316.938-135.404 316.938-301.844 0-112.845-65.183-211.558-159.939-262.359 192.527-59.238 334.7-220.037 352.461-420.321 5.924-50.76-94.792-53.601-97.731-5.642-20.751 200.284-201.431 352.604-411.73 352.604-213.274 0-390.972-152.32-411.724-352.604-5.922-47.959-106.638-45.117-100.716 5.642 20.748 197.478 162.915 361.083 352.462 420.321-94.794 50.76-159.936 149.524-159.936 262.359 0 166.441 145.152 301.844 319.914 301.844zM512.691 864.080c-121.422 0-219.201-93.080-219.201-205.916 0-115.64 97.733-208.763 219.201-208.763 118.487 0 216.212 93.080 216.212 208.763 0 112.845-97.736 205.916-216.212 205.916z" />
<glyph unicode="&#xe90d;" glyph-name="Search2" d="M1006.996 32.845l-183.762 182.415c143.478 183.695 128.389 445.316-36.536 610.143-86.835 86.784-202.696 134.597-326.008 134.597-123.375 0-239.176-47.815-326.009-134.597-86.838-86.785-134.681-202.569-134.681-325.805 0-123.299 47.845-239.026 134.681-325.805 86.839-86.784 202.695-134.595 326.009-134.595 101.982 0 202.698 33.956 283.235 98.135l182.528-184.97c11.31-11.3 25.175-16.364 40.274-16.364 15.094 0 28.964 6.292 40.269 16.364 22.671 21.376 22.671 57.841 0 80.497v-0.015zM808.141 499.598c0-93.075-36.485-179.911-101.985-245.319-65.449-65.403-153.564-101.919-245.469-101.919-91.907 0-180.024 36.465-245.47 101.919-65.448 65.408-101.984 153.472-101.984 245.319 0 93.074 36.486 179.911 101.984 245.316 65.448 65.407 153.564 101.921 245.47 101.921 93.133 0 180.025-36.463 245.469-101.921 65.449-65.457 101.985-152.247 101.985-245.316v0z" />
<glyph unicode="&#xe923;" glyph-name="dropdown" d="M950.494 701.56c22.212-22.217 22.212-58.237 0-80.453l-398.223-398.223c-22.217-22.217-58.237-22.217-80.453 0l-398.222 398.223c-22.216 22.217-22.216 58.237 0 80.453s58.237 22.216 80.453 0l357.996-357.996 357.996 357.996c22.212 22.216 58.24 22.216 80.452 0z" />
<glyph unicode="&#xe924;" glyph-name="right-arrow1" d="M670.885 744.227c22.215 22.216 58.237 22.216 80.452 0l256-256c22.215-22.217 22.215-58.237 0-80.453l-256-255.999c-22.215-22.215-58.237-22.215-80.452 0s-22.215 58.237 0 80.453l158.885 158.884h-772.881c-31.419 0-56.889 25.47-56.889 56.889s25.47 56.889 56.889 56.889h772.881l-158.885 158.884c-22.215 22.217-22.215 58.237 0 80.453z" />
<glyph unicode="&#xe925;" d="M77.885 523.038c5.32 12.269 22.72 12.269 28.041 0l16.094-37.115 40.272-3.838c13.313-1.269 18.689-17.817 8.665-26.668l-30.325-26.776 8.795-39.487c2.908-13.053-11.169-23.28-22.685-16.481l-34.836 20.567-34.836-20.567c-11.516-6.799-25.593 3.428-22.685 16.481l8.795 39.487-30.325 26.776c-10.025 8.851-4.648 25.4 8.665 26.668l40.272 3.838 16.094 37.115z" />
<glyph unicode="&#xe926;" d="M287.936 523.038c5.321 12.269 22.721 12.269 28.041 0l16.095-37.115 40.272-3.838c13.313-1.269 18.689-17.817 8.665-26.668l-30.325-26.776 8.795-39.487c2.908-13.053-11.169-23.28-22.686-16.481l-34.836 20.567-34.837-20.567c-11.516-6.799-25.592 3.428-22.686 16.481l8.796 39.487-30.325 26.776c-10.025 8.851-4.649 25.4 8.665 26.668l40.272 3.838 16.094 37.115z" />
<glyph unicode="&#xe927;" d="M497.987 523.038c5.321 12.269 22.721 12.269 28.041 0l16.095-37.115 40.272-3.838c13.313-1.269 18.689-17.817 8.665-26.668l-30.325-26.776 8.795-39.487c2.908-13.053-11.169-23.28-22.686-16.481l-34.836 20.567-34.837-20.567c-11.516-6.799-25.592 3.428-22.686 16.481l8.796 39.487-30.325 26.776c-10.025 8.851-4.649 25.4 8.665 26.668l40.272 3.838 16.094 37.115z" />
<glyph unicode="&#xe928;" d="M708.038 523.038c5.32 12.269 22.72 12.269 28.041 0l16.094-37.115 40.272-3.838c13.313-1.269 18.691-17.817 8.666-26.668l-30.326-26.776 8.796-39.487c2.907-13.053-11.169-23.28-22.686-16.481l-34.837 20.567-34.836-20.567c-11.516-6.799-25.593 3.428-22.686 16.481l8.795 39.487-30.325 26.776c-10.025 8.851-4.647 25.4 8.665 26.668l40.272 3.838 16.095 37.115z" />
<glyph unicode="&#xe929;" d="M918.090 523.038c5.32 12.269 22.72 12.269 28.041 0l16.094-37.115 40.272-3.838c13.313-1.269 18.691-17.817 8.666-26.668l-30.326-26.776 8.796-39.487c2.907-13.053-11.169-23.28-22.686-16.481l-34.837 20.567-34.836-20.567c-11.516-6.799-25.593 3.428-22.686 16.481l8.795 39.487-30.325 26.776c-10.025 8.851-4.647 25.4 8.665 26.668l40.272 3.838 16.095 37.115zM948.204 479.843l-16.095 37.115-16.094-37.115c-2.215-5.106-7.030-8.605-12.57-9.133l-40.272-3.837 30.325-26.776c4.172-3.684 6.011-9.345 4.801-14.778l-8.795-39.486 34.836 20.567c4.793 2.829 10.745 2.829 15.539 0l34.837-20.567-8.796 39.486c-1.209 5.433 0.63 11.094 4.802 14.778l30.325 26.776-40.272 3.837c-5.54 0.528-10.357 4.027-12.57 9.133z" />
<glyph unicode="&#xe92a;" glyph-name="pause1" d="M697.129 520.318c47.664-36.431 47.664-108.206 0-144.637l-208.439-159.311c-59.897-45.78-146.295-3.069-146.295 72.318v318.618c0 75.389 86.398 118.098 146.295 72.319l208.439-159.308zM641.853 448l-208.435 159.307v-318.618l208.435 159.311zM511.997 857.601c-226.214 0-409.598-183.384-409.598-409.601 0-226.215 183.384-409.6 409.598-409.6 226.219 0 409.6 183.385 409.6 409.6 0 226.217-183.381 409.601-409.6 409.601zM11.376 448c0 276.487 224.136 500.623 500.621 500.623 276.487 0 500.623-224.136 500.623-500.623s-224.137-500.62-500.623-500.62c-276.484 0-500.621 224.133-500.621 500.62z" />
<glyph unicode="&#xe92b;" glyph-name="left-arrow1" d="M353.116 151.774c-22.217-22.215-58.237-22.215-80.453 0l-256 255.999c-22.216 22.217-22.216 58.237 0 80.453l256 256c22.217 22.216 58.237 22.216 80.453 0s22.216-58.236 0-80.453l-158.885-158.884h772.88c31.42 0 56.889-25.47 56.889-56.889s-25.469-56.889-56.889-56.889h-772.88l158.885-158.884c22.216-22.216 22.216-58.238 0-80.453z" />
<glyph unicode="&#xe92c;" glyph-name="heart1" d="M512.007 110.605c-196.227 111.757-305.669 222.842-358.591 319.223-54.166 98.644-49.44 181.729-19.383 240.696 61.78 121.204 237.464 159.962 344.505 24.581l33.467-42.327 33.469 42.325c107.057 135.386 282.75 96.623 344.529-24.579 30.061-58.966 34.784-142.049-19.386-240.695-52.928-96.381-162.374-207.467-358.611-319.224zM512.008 784.794c-150.579 143.087-372.719 83.949-454.002-75.519-44.61-87.518-45.219-200.633 20.611-320.52 65.245-118.824 195.332-244.244 412.75-364.417l20.639-11.405 20.639 11.405c217.428 120.173 347.521 245.592 412.769 364.415 65.837 119.887 65.229 233.002 20.621 320.521-81.286 159.471-303.437 218.604-454.027 75.519z" />
<glyph unicode="&#xe92d;" glyph-name="favorite1" d="M511.977 12.8c-9.389 0-18.778 2.964-26.592 8.899l-22.654 17.203c-208.078 157.676-333.657 252.877-406.759 379.89-70.086 121.369-61.667 217.234-42.343 276.247 23.564 71.718 76.568 129.436 149.38 162.535 37.436 16.966 78.143 25.626 120.849 25.626 90.318 0 173.791-37.669 228.129-99.776 54.337 62.107 137.752 99.776 228.13 99.776 42.706 0 83.354-8.601 120.786-25.567 72.817-33.1 125.88-90.76 149.443-162.535 19.384-58.963 27.745-154.82-42.342-276.247-73.175-127.006-198.927-222.335-407.255-380.241l-22.113-16.906c-7.875-5.929-17.265-8.904-26.657-8.904zM283.848 798.019c-30.046 0-58.395-5.932-84.321-17.678-50.52-22.957-87.169-62.465-103.16-111.343-20.172-61.397-7.935-133.471 35.254-208.336 64.089-111.345 176.645-197.069 380.288-351.478 203.657 154.348 316.21 240.179 380.286 351.417 43.254 74.921 55.429 146.995 35.318 208.397-16.056 48.82-52.7 88.387-103.224 111.343-25.866 11.745-54.211 17.678-84.26 17.678-81.592 0-157.43-44.372-188.692-110.394-7.086-15.068-22.533-24.677-39.436-24.677-16.962 0-32.286 9.61-39.435 24.677-31.196 66.023-107.022 110.394-188.618 110.394z" />
<glyph unicode="&#xe92e;" glyph-name="chart1" d="M974.266 272.686c0 0 0 0 0 0l-368.691 230.42c-6.428 4.018-13.857 6.149-21.437 6.149h-31.652v17.193c62.598 17.674 108.608 75.309 108.608 143.487 0 82.193-66.867 149.063-149.059 149.063-82.195 0-149.062-66.87-149.062-149.063 0-22.34 18.111-40.451 40.451-40.451s40.452 18.111 40.452 40.451c0 37.583 30.574 68.16 68.159 68.16 37.583 0 68.157-30.577 68.157-68.16s-30.577-68.159-68.157-68.159c-22.34 0-40.451-18.111-40.451-40.451v-52.069h-31.652c-7.58 0-15.009-2.131-21.437-6.149l-368.693-230.42c-31.162-19.479-49.767-53.044-49.767-89.793 0-58.387 47.502-105.888 105.888-105.888h812.221c58.387 0 105.888 47.501 105.888 105.888 0 36.749-18.605 70.314-49.766 89.793v0zM918.144 157.907h-812.221c-13.777 0-24.985 11.206-24.985 24.986 0 8.666 4.389 16.592 11.742 21.188l358.851 224.272h121.005l358.849-224.272c7.36-4.596 11.744-12.522 11.744-21.188 0-13.779-11.206-24.986-24.986-24.986v0z" />
<glyph unicode="&#xe92f;" glyph-name="cart1" d="M166.077 799.658c-4.167 0.314-9.949 0.342-20.794 0.342h-70.581c-23.564 0-42.667 19.102-42.667 42.666s19.103 42.667 42.667 42.667h70.581c0.402 0 0.804 0 1.206 0 9.159 0.001 18.227 0.002 25.999-0.583 8.648-0.652 18.696-2.182 29.090-6.819 14.628-6.525 27.124-17.036 36.060-30.33 6.349-9.446 9.578-19.082 11.702-27.491 1.908-7.556 3.461-16.491 5.030-25.515 0.068-0.396 0.138-0.792 0.207-1.188l10.166-58.456 555.264-16.436c21.76-0.643 40.563-1.199 56.051-2.905 16.365-1.803 32.595-5.192 48.16-13.486 23.59-12.567 42.656-32.203 54.515-56.154 7.834-15.806 10.739-32.127 12.058-48.542 1.248-15.53 1.248-34.342 1.242-56.11v-3.146c0.006-20.458 0.006-38.203-1.139-52.918-1.216-15.606-3.898-31.107-11.046-46.294-10.88-23.117-28.435-42.448-50.394-55.506-14.432-8.579-29.6-12.74-45.018-15.453-14.534-2.558-32.198-4.267-52.557-6.236l-415.315-40.192c-20.872-2.020-38.957-3.771-54.045-4.036-15.986-0.282-32.013 0.961-48.104 6.871-24.131 8.865-45.034 24.79-59.986 45.703-9.97 13.944-15.421 29.067-19.394 44.554-3.749 14.618-6.861 32.517-10.454 53.176l-54.077 310.947c-1.858 10.684-2.877 16.376-3.9 20.428-0.036 0.144-0.072 0.28-0.106 0.41-0.134 0.011-0.274 0.022-0.422 0.033zM279.666 649.139l28.719-165.132c3.938-22.645 6.499-37.185 9.309-48.143 2.68-10.451 4.801-14.234 6.152-16.124 4.984-6.97 11.951-12.279 19.995-15.234 2.18-0.801 6.391-1.841 17.178-1.651 11.31 0.198 26.008 1.59 48.886 3.804l412.22 39.892c22.33 2.161 36.653 3.578 47.526 5.491 10.355 1.822 14.221 3.585 16.192 4.758 7.315 4.353 13.171 10.796 16.794 18.502 0.979 2.075 2.362 6.092 3.181 16.575 0.851 11.005 0.883 25.396 0.883 47.834 0 23.829-0.032 39.183-0.973 50.888-0.896 11.2-2.419 15.398-3.462 17.493-3.949 7.983-10.304 14.529-18.17 18.718-2.061 1.099-6.214 2.748-17.382 3.978-11.674 1.286-27.021 1.772-50.835 2.477l-536.212 15.873zM394.702 181.331c-23.564 0-42.667-19.098-42.667-42.662s19.103-42.669 42.667-42.669c23.564 0 42.666 19.104 42.666 42.669s-19.102 42.662-42.666 42.662zM266.702 138.669c0 70.688 57.308 128 128 128s128-57.312 128-128c0-70.694-57.308-128-128-128s-128 57.306-128 128zM800.032 181.331c-23.558 0-42.662-19.098-42.662-42.662s19.104-42.669 42.662-42.669c23.565 0 42.669 19.104 42.669 42.669s-19.104 42.662-42.669 42.662zM672.032 138.669c0 70.688 57.312 128 128 128 70.694 0 128-57.312 128-128 0-70.694-57.306-128-128-128-70.688 0-128 57.306-128 128z" />
<glyph unicode="&#xe930;" glyph-name="Twitter1" d="M960 713.706c-32.978-13.992-68.362-23.481-105.539-27.718 37.96 21.767 67.016 56.292 80.788 97.304-35.61-20.157-74.911-34.794-116.792-42.728-33.536 34.257-81.239 55.595-134.154 55.595-101.509 0-183.812-78.808-183.812-175.951 0-13.777 1.624-27.234 4.76-40.101-152.739 7.346-288.177 77.415-378.824 183.887-15.845-25.948-24.86-56.183-24.86-88.458 0-61.063 32.474-114.942 81.745-146.464-30.122 0.964-58.454 8.899-83.256 22.087v-2.198c0-85.241 63.38-156.384 147.42-172.574-15.397-3.968-31.634-6.164-48.431-6.164-11.869 0-23.347 1.126-34.601 3.272 23.403-69.965 91.263-120.842 171.665-122.235-62.877-47.181-142.158-75.218-228.27-75.218-14.837 0-29.451 0.86-43.839 2.412 81.353-50.017 177.935-79.181 281.74-79.181 338.118 0 522.945 268.16 522.945 500.725l-0.62 22.785c36.111 24.663 67.354 55.649 91.935 90.926z" />
<glyph unicode="&#xe931;" glyph-name="Search1" d="M1006.996 32.845l-183.762 182.415c143.478 183.695 128.389 445.316-36.536 610.143-86.835 86.784-202.696 134.597-326.008 134.597-123.375 0-239.176-47.815-326.009-134.597-86.838-86.784-134.681-202.569-134.681-325.805 0-123.299 47.845-239.026 134.681-325.805 86.839-86.784 202.695-134.595 326.009-134.595 101.982 0 202.698 33.956 283.235 98.135l182.528-184.97c11.31-11.3 25.175-16.364 40.274-16.364 15.094 0 28.964 6.292 40.269 16.364 22.671 21.376 22.671 57.841 0 80.497v-0.015zM808.141 499.598c0-93.075-36.485-179.911-101.985-245.319-65.449-65.403-153.564-101.919-245.469-101.919-91.907 0-180.024 36.465-245.47 101.919-65.448 65.408-101.984 153.472-101.984 245.319 0 93.074 36.486 179.911 101.984 245.316 65.448 65.407 153.564 101.921 245.47 101.921 93.133 0 180.025-36.463 245.469-101.921 65.449-65.457 101.985-152.247 101.985-245.316z" />
<glyph unicode="&#xe932;" glyph-name="Facebook1" d="M749.348 917.139l-118.492 0.195c-133.129 0-219.162-90.67-219.162-231.007v-106.51h-119.143c-10.295 0-18.632-8.574-18.632-19.15v-154.319c0-10.578 8.346-19.144 18.632-19.144h119.143v-389.396c0-10.578 8.337-19.139 18.633-19.139h155.447c10.296 0 18.632 8.571 18.632 19.139v389.396h139.305c10.296 0 18.637 8.566 18.637 19.144l0.056 154.319c0 5.078-1.971 9.941-5.458 13.535s-8.243 5.615-13.184 5.615h-139.356v90.29c0 43.397 10.066 65.427 65.101 65.427l79.826 0.029c10.286 0 18.621 8.574 18.621 19.14v143.295c0 10.556-8.325 19.12-18.606 19.14z" />
<glyph unicode="&#xe933;" glyph-name="Empty-Cart1" d="M1001.539 710.472c-19.41 23.72-49.608 38.137-80.855 38.137h-656.548l-20.467 76.274c-11.876 44.339-52.81 75.267-100.273 75.267h-109.957c-18.319 0-33.439-14.416-33.439-31.975 0-17.518 15.076-31.976 33.439-31.976h109.957c16.172 0 30.196-10.31 34.491-25.774l131.518-501.059c11.876-44.339 52.81-75.269 100.273-75.269h430.146c47.416 0 89.492 30.93 100.27 75.269l80.86 317.54c7.537 28.915 1.096 59.844-19.415 83.564v0.003zM955.218 641.407l-80.86-317.541c-4.296-15.462-18.319-25.774-34.493-25.774h-430.185c-16.172 0-30.196 10.312-34.491 25.774l-93.787 359.779h639.329c10.783 0 21.565-5.155 28.047-13.41 6.446-8.216 9.646-18.525 6.446-28.835l-0.005 0.007zM432.352 192.947c-61.444 0-112.102-48.445-112.102-107.197s50.663-107.197 112.102-107.197c61.444-0.041 112.104 48.404 112.104 107.167 0 58.757-50.664 107.238-112.104 107.238v-0.010zM432.352 43.459c-24.805 0-44.219 18.565-44.219 42.286s19.415 42.286 44.219 42.286c24.805 0 44.22-18.565 44.22-42.286-0.042-22.712-20.509-42.286-44.22-42.286zM803.2 192.947c-61.44 0-112.102-48.445-112.102-107.197s50.668-107.197 112.102-107.197c61.44 0 112.102 48.445 112.102 107.197-1.050 58.716-50.662 107.197-112.102 107.197zM803.2 43.464c-24.801 0-44.216 18.565-44.216 42.281 0 23.721 19.415 42.286 44.216 42.286 24.806 0 44.221-18.565 44.221-42.286 0-22.712-20.511-42.281-44.221-42.281z" />
<glyph unicode="&#xe934;" glyph-name="Account1" d="M512.691 960c174.761 0 316.938-135.404 316.938-301.844 0-112.845-65.183-211.558-159.939-262.359 192.527-59.238 334.7-220.037 352.461-420.321 5.924-50.76-94.792-53.601-97.731-5.642-20.751 200.284-201.431 352.604-411.73 352.604-213.274 0-390.972-152.32-411.724-352.604-5.922-47.959-106.638-45.117-100.716 5.642 20.748 197.478 162.915 361.083 352.462 420.321-94.794 50.76-159.936 149.524-159.936 262.359 0 166.441 145.152 301.844 319.914 301.844zM512.691 864.080c-121.422 0-219.201-93.080-219.201-205.916 0-115.64 97.733-208.763 219.201-208.763 118.487 0 216.212 93.080 216.212 208.763 0 112.845-97.736 205.916-216.212 205.916z" />
</font>
</defs>
</svg>
